<?xml version="1.0" standalone="no"?>
<!DOCTYPE svg PUBLIC "-//W3C//DTD SVG 20010904//EN"
 "http://www.w3.org/TR/2001/REC-SVG-20010904/DTD/svg10.dtd">
<svg version="1.0" xmlns="http://www.w3.org/2000/svg"
 width="500.000000pt" height="500.000000pt" viewBox="0 0 500.000000 500.000000"
 preserveAspectRatio="xMidYMid meet">
<metadata>
Created by potrace 1.14, written by Peter Selinger 2001-2017
</metadata>
<g transform="translate(0.000000,500.000000) scale(0.100000,-0.100000)"
fill="#000000" stroke="none">
<path d="M2285 4784 c-145 -21 -154 -23 -294 -70 -161 -54 -273 -109 -412
-202 -155 -104 -297 -230 -417 -372 -26 -30 -55 -63 -64 -73 -40 -45 -159
-220 -215 -317 -138 -238 -250 -528 -279 -720 -20 -137 6 -361 62 -528 18 -54
19 -49 -17 -67 -79 -41 -145 -149 -173 -280 -15 -70 -16 -273 -2 -340 38 -173
110 -336 209 -471 94 -128 192 -199 302 -219 58 -11 60 -12 71 -51 29 -98 125
-247 215 -333 89 -84 219 -163 419 -255 47 -22 122 -61 167 -88 193 -114 325
-167 458 -185 33 -4 123 -8 200 -8 230 1 366 40 582 168 62 36 143 80 180 98
38 17 105 49 150 70 92 44 237 139 300 197 87 81 168 205 213 326 20 52 21 54
66 59 59 6 159 56 211 106 143 136 264 370 308 595 18 96 13 294 -10 371 -34
117 -94 204 -166 241 -22 11 -29 20 -24 32 13 34 43 138 51 177 4 22 9 47 10
55 15 77 20 253 9 342 -11 92 -75 320 -96 343 -5 5 -9 15 -9 23 0 21 -131 288
-176 358 -96 152 -130 200 -205 294 -307 386 -708 642 -1119 716 -121 21 -383
26 -505 8z m455 -202 c25 -6 61 -14 80 -17 19 -3 82 -22 140 -41 299 -100 579
-311 812 -615 211 -273 376 -619 423 -889 12 -65 6 -227 -10 -310 -12 -61 -41
-154 -61 -201 -25 -56 -26 -56 -102 -82 -42 -14 -79 -24 -81 -21 -9 9 40 133
76 192 48 81 75 172 79 271 3 80 1 86 -36 160 -75 150 -216 314 -360 422 -214
159 -505 275 -800 318 -41 6 -91 14 -110 17 -63 9 -463 12 -535 3 -38 -5 -92
-11 -120 -15 -159 -19 -415 -91 -555 -157 -282 -133 -510 -339 -631 -571 -29
-55 -43 -95 -46 -136 -8 -83 20 -196 74 -299 41 -78 88 -200 80 -207 -2 -2
-36 9 -77 24 l-75 28 -28 68 c-49 117 -78 262 -80 395 -2 100 48 284 125 466
235 548 661 986 1108 1134 119 40 171 52 290 70 73 11 363 6 420 -7z m50 -997
c25 -4 81 -13 125 -21 44 -8 94 -17 110 -20 60 -11 239 -75 329 -118 234 -113
434 -296 518 -473 31 -65 32 -94 7 -170 -12 -38 -16 -39 -49 -12 -134 110
-394 245 -601 313 -257 84 -469 115 -764 111 -360 -4 -666 -74 -957 -216 -90
-44 -274 -152 -288 -169 -9 -11 -77 -60 -83 -60 -7 0 -25 56 -32 103 -12 73
60 194 194 327 99 98 109 106 199 164 211 133 478 220 747 242 39 4 72 8 73 9
7 6 426 -3 472 -10z m-50 -599 c14 -2 45 -7 70 -10 37 -5 139 -25 200 -41 8
-2 17 -4 20 -4 3 -1 -22 -14 -55 -30 -106 -50 -206 -146 -259 -249 -21 -41
-20 -68 5 -108 42 -68 127 -55 180 27 72 112 167 172 273 173 74 0 134 -21
233 -82 63 -39 78 -44 110 -39 26 5 46 17 64 38 22 28 26 29 38 15 7 -9 18
-16 23 -16 5 0 38 -20 73 -45 l63 -46 -20 -57 c-66 -189 -69 -311 -15 -637 20
-115 38 -232 41 -260 4 -27 9 -70 12 -95 14 -121 0 -293 -31 -366 -8 -19 -12
-34 -10 -34 2 0 -11 -27 -29 -60 -75 -140 -191 -240 -386 -336 -211 -103 -264
-131 -355 -186 -185 -111 -299 -141 -520 -134 -194 5 -272 29 -450 135 -104
61 -257 140 -370 191 -151 67 -314 213 -372 332 -86 176 -95 346 -38 688 2 14
11 68 20 120 22 135 25 152 31 180 3 14 7 70 9 125 4 110 -11 212 -50 326
l-24 71 91 58 90 58 27 -30 c41 -46 86 -46 158 1 103 65 185 92 261 85 51 -5
132 -41 172 -77 33 -30 90 -102 90 -115 0 -15 63 -52 88 -52 54 0 102 48 102
102 0 72 -145 234 -260 292 l-71 35 39 10 c75 21 161 36 267 47 33 4 62 8 63
10 6 4 372 -4 402 -10z m-1865 -738 c57 -14 155 -65 188 -96 21 -20 27 -33 23
-57 -3 -16 -7 -50 -11 -75 -3 -25 -10 -70 -15 -100 -5 -30 -12 -72 -16 -94 -3
-21 -7 -48 -10 -60 -15 -77 -35 -271 -36 -346 l-1 -90 -30 18 c-81 46 -178
177 -237 319 -87 209 -90 485 -5 575 22 24 31 27 68 22 23 -3 60 -10 82 -16z
m3404 -11 c44 -60 55 -109 55 -242 1 -156 -19 -236 -94 -390 -52 -106 -96
-166 -168 -227 -62 -54 -70 -51 -70 30 0 64 -8 169 -17 222 -3 14 -7 45 -10
70 -3 25 -14 97 -25 160 -10 63 -21 133 -24 155 -3 22 -8 56 -11 75 -5 30 -1
40 22 62 62 59 236 122 302 111 14 -2 32 -14 40 -26z"/>
<path d="M2596 4327 l-98 -102 -95 98 c-77 81 -97 96 -109 87 -8 -7 -14 -16
-14 -20 0 -4 -20 -43 -43 -86 -107 -194 -210 -405 -201 -413 5 -5 43 -29 85
-54 l76 -44 57 191 c32 105 59 199 61 210 3 10 6 20 8 22 2 2 28 -24 58 -58
80 -93 128 -143 132 -138 77 103 152 188 158 178 4 -7 34 -100 68 -207 33
-107 63 -196 65 -198 3 -4 136 80 164 103 4 3 -256 515 -266 525 -4 4 -51 -39
-106 -94z"/>
<path d="M1894 2381 c-20 -12 -43 -41 -60 -77 -24 -49 -29 -71 -29 -139 0
-104 19 -168 65 -217 21 -21 33 -41 28 -44 -18 -11 -69 -127 -84 -191 -9 -37
-14 -94 -12 -125 2 -32 0 -58 -4 -58 -22 0 -186 63 -233 90 -57 33 -135 103
-135 122 0 24 -30 -17 -44 -60 -21 -64 -26 -102 -28 -186 -2 -150 44 -241 147
-287 22 -10 48 -19 58 -19 9 0 17 -7 17 -15 0 -29 33 -111 62 -152 16 -24 50
-55 76 -70 40 -24 57 -28 122 -27 52 0 88 6 118 20 l43 19 57 -55 c81 -79 138
-105 232 -105 65 0 85 5 141 33 l67 32 54 -25 c103 -47 206 -52 284 -14 25 12
72 46 104 75 l58 54 43 -16 c177 -63 328 18 378 203 9 34 17 43 41 48 53 12
116 70 150 139 28 56 32 75 32 144 0 93 -16 182 -43 235 l-19 37 -53 -53 c-56
-57 -155 -113 -256 -146 -35 -12 -67 -21 -70 -21 -3 0 -5 30 -5 67 2 84 -23
183 -65 258 l-32 56 34 39 c118 138 62 450 -82 450 -36 0 -84 -35 -109 -79
-31 -54 -35 -73 -36 -158 -1 -40 -3 -73 -6 -73 -3 0 -15 6 -26 14 -71 50 -243
94 -372 94 -126 1 -298 -42 -376 -93 -14 -10 -26 -16 -26 -14 0 2 -2 38 -4 81
-5 128 -69 228 -146 228 -14 0 -39 -9 -56 -19z m761 -402 c338 -93 453 -425
222 -639 -164 -150 -447 -181 -653 -71 -300 160 -293 516 13 668 40 19 98 41
130 48 82 17 214 15 288 -6z"/>
</g>
</svg>
